<svg id="Layer_1" data-name="Layer 1" xmlns="http://www.w3.org/2000/svg" viewBox="0 0 237.5 237.43"><title>logo35p</title><g id="Layer0_0_FILL" data-name="Layer0 0 FILL"><path d="M-55.5,202.9q2.4-2.4,0-4.85L-170.65,82.95q-2.15-2.15-4.35-.4a3.28,3.28,0,0,1-.5.4l-115.1,115q-2.4,2.55,0,4.95L-175.5,318l0.5,0.5q2.2,1.65,4.35-.6l115.15-115M-116.15,161l10.55,10.5q2.6,2.6,0,5.3l-90.65,90.55q-2.6,2.6-5.2,0L-212,256.8a1.4,1.4,0,0,1-.35-0.55q-0.65-.45-1.2-0.9l-22-22.1a8.38,8.38,0,0,1-.85-1,3.08,3.08,0,0,1-.65-0.5l-10.5-10.5q-2.7-2.6-.1-5.2l16.5-16.5q2.6-2.6,5.3,0l10.5,10.5q0.3,0.3.55,0.6,0.5,0.45.95,0.9L-193,232.5l52.35-52.35-19.75-19.8-46.75,46.75q-2.6,2.6-5.2,0l-10.55-10.55q-2.7-2.6-.1-5.2l66-65.85q2.6-2.7,5.3-.1l10.55,10.55a1.74,1.74,0,0,1,.35.35l0.75,0.75,22.85,22.8a8,8,0,0,0,.75.75,0.76,0.76,0,0,0,.35.4m-149.6,36.85,16.5-16.45q2.6-2.65,5.2.1L-233.5,192q2.7,2.6.1,5.2l-16.5,16.5q-2.6,2.6-5.3,0l-10.55-10.5q-2.6-2.7,0-5.35m56.95-30.55q2.7,2.65.05,5.25L-225.2,189q-2.6,2.65-5.3,0l-10.55-10.5q-2.6-2.7,0-5.3l16.5-16.5q2.6-2.6,5.2.1l10.55,10.5m2.95-2.95-10.5-10.55q-2.6-2.7.1-5.4L-199.9,132q2.7-2.7,5.35,0l10.5,10.55q2.7,2.6,0,5.3l-16.4,16.4q-2.7,2.7-5.4.1m46.5-46.5q2.7,2.6.1,5.3l-16.5,16.4q-2.7,2.7-5.4.1l-10.55-10.5q-2.6-2.7.1-5.4l16.6-16.5q2.6-2.5,5.1.1l10.55,10.5M-175,251.9a3.64,3.64,0,0,1,2.8,1.3l8.45,8.45,0.4,0.4,10.5,10.5q2.6,2.6,0,5.25l-16.5,16.45q-2.6,2.6-5.2,0l-10.5-10.5a1.26,1.26,0,0,1-.3-0.5l-0.1,0-0.1,0-8.35-8.35q-2.65-2.6,0-5.2l16.45-16.5A4.14,4.14,0,0,1-175,251.9Z" transform="translate(291.8 -81.76)"/></g></svg>